# xmcd
#
# Track frame offsets: 
#        150
#        11945
#        28587
#        39950
#        57315
#        73370
#        86532
#        101580
#        117850
#        135620
#        153335
#        169845
#        184380
#        197130
#        206635
#        221332
#        235385
#        250430
#        259832
#        272652
#        282617
#        305927
#        323505
#        335650
#
# Disc length: 4771 seconds
#
# Revision: 0
# Processed by: cddbd v1.5.2PL0 Copyright (c) Steve Scherf et al.
# Submitted via: ExactAudioCopy v0.95b3
#
DISCID=7612a118
DTITLE=The Byrds  - There Is A Season - Disc 3
DYEAR=1900
DGENRE=
TTITLE0=You Ain't Goin' Nowhere
TTITLE1=I Am A Pilgrim
TTITLE2=The Christian Life (Gram Parsons Vocal Version)
TTITLE3=You Don't Miss Your Water (Gram Parsons Vocal Version)
TTITLE4=Hickory Wind
TTITLE5=One Hundred Years From Now (Gram Parsons Vocal Version)
TTITLE6=Lazy Days (Alternate Version)
TTITLE7=Pretty Polly (Alternate Version)
TTITLE8=This Wheel's On Fire (Alternate Version)
TTITLE9=Drug Store Truck Drivin' Man
TTITLE10=Candy
TTITLE11=Child Of The Universe (''candy'' Soundtrack Version)
TTITLE12=Pretty Boy Floyd (Live)
TTITLE13=Buckaroo (Instrumental - Live)
TTITLE14=King Apathy Iii (Live)
TTITLE15=Sing Me Back Home (Live)
TTITLE16=Lay Lady Lay (Alternate Version)
TTITLE17=Oil In My Lamp (Alternate Version)
TTITLE18=Tulsa County
TTITLE19=Jesus Is Just Alright
TTITLE20=Chestnut Mare
TTITLE21=Just A Season
TTITLE22=Kathleen's Song (Alternate Version)
TTITLE23=All The Things (Alternate Version)
EXTD=
EXTT0=
EXTT1=
EXTT2=
EXTT3=
EXTT4=
EXTT5=
EXTT6=
EXTT7=
EXTT8=
EXTT9=
EXTT10=
EXTT11=
EXTT12=
EXTT13=
EXTT14=
EXTT15=
EXTT16=
EXTT17=
EXTT18=
EXTT19=
EXTT20=
EXTT21=
EXTT22=
EXTT23=
PLAYORDER=
